<?xml version="1.0"?><svg fill="#000000" xmlns="http://www.w3.org/2000/svg" viewBox="0 0 128 128" >    <path d="M 41.525391 34.052734 C 41.085742 34.059131 40.642969 34.074609 40.199219 34.099609 C 25.199219 34.999609 13 47.099609 12 62.099609 C 11 79.499609 24.8 94 42 94 C 48.4 94 54.399219 92 59.199219 88.5 C 60.699219 87.5 60.899219 85.399609 59.699219 84.099609 C 54.899219 78.799609 52 71.7 52 64 C 52 56.3 54.899219 49.200391 59.699219 43.900391 C 60.899219 42.600391 60.699219 40.5 59.199219 39.5 C 54.230469 35.9375 48.120117 33.956787 41.525391 34.052734 z M 86.375 34.054688 C 79.780273 33.96936 73.667969 36.03125 68.699219 39.5 C 67.199219 40.5 66.999219 42.600391 68.199219 43.900391 C 73.099219 49.200391 76 56.3 76 64 C 76 71.7 73.100781 78.799609 68.300781 84.099609 C 67.100781 85.399609 67.300781 87.5 68.800781 88.5 C 73.600781 92 79.6 94 86 94 C 103.2 94 117.00039 79.499609 115.90039 62.099609 C 115.00039 47.099609 102.69922 34.999609 87.699219 34.099609 C 87.255469 34.074609 86.814648 34.060376 86.375 34.054688 z"/></svg>